<svg width="200" height="199" viewBox="0 0 200 199" fill="none" xmlns="http://www.w3.org/2000/svg">
<path d="M95.2968 74.627L101.267 68.6568L107.237 74.627L113.207 68.6568L119.178 74.627L127.76 66.0448L107.237 26.8656L86.7147 66.0448L95.2968 74.627Z" fill="#E7ECED"/>
<path d="M172.42 151.302L127.76 66.0449L119.178 74.627L113.207 68.6569L107.237 74.627L101.267 68.6569L95.297 74.627L86.7148 66.0449L41.5654 152.239H171.852C172.333 152.239 172.644 151.729 172.42 151.302Z" fill="#6B5B4B"/>
<path d="M34.5026 98.9885L0.0427764 151.83C-0.0706569 152.007 0.0547167 152.239 0.263673 152.239H41.5653L64.7326 108.012L56.2669 97.7616C50.4549 90.7288 39.4877 91.3467 34.5026 98.9885Z" fill="#659C35"/>
<path d="M35.5952 41.7912C47.1355 41.7912 56.4908 32.4359 56.4908 20.8956C56.4908 9.35528 47.1355 0 35.5952 0C24.0549 0 14.6996 9.35528 14.6996 20.8956C14.6996 32.4359 24.0549 41.7912 35.5952 41.7912Z" fill="#EFCE4A"/>
<path d="M83.3566 99.2452V152.239" stroke="#6C4127" stroke-width="2.85142" stroke-miterlimit="10" stroke-linecap="round"/>
<path d="M83.3565 98.5079C83.3565 105.108 78.0162 110.448 71.4161 110.448" stroke="#88C057" stroke-width="2.85142" stroke-miterlimit="10" stroke-linecap="round"/>
<path d="M83.3564 110.448C83.3564 120.347 75.3445 128.359 65.4459 128.359" stroke="#88C057" stroke-width="2.85142" stroke-miterlimit="10" stroke-linecap="round"/>
<path d="M83.3564 122.389C83.3564 135.589 72.6758 146.269 59.4758 146.269" stroke="#88C057" stroke-width="2.85142" stroke-miterlimit="10" stroke-linecap="round"/>
<path d="M83.3566 98.5079C83.3566 105.108 88.6969 110.448 95.297 110.448" stroke="#88C057" stroke-width="2.85142" stroke-miterlimit="10" stroke-linecap="round"/>
<path d="M83.3566 110.448C83.3566 120.347 91.3686 128.359 101.267 128.359" stroke="#88C057" stroke-width="2.85142" stroke-miterlimit="10" stroke-linecap="round"/>
<path d="M83.3566 122.389C83.3566 135.589 94.0373 146.269 107.237 146.269" stroke="#88C057" stroke-width="2.85142" stroke-miterlimit="10" stroke-linecap="round"/>
<path d="M131.118 99.2452V152.239" stroke="#6C4127" stroke-width="2.85142" stroke-miterlimit="10" stroke-linecap="round"/>
<path d="M131.118 98.5079C131.118 105.108 125.777 110.448 119.177 110.448" stroke="#88C057" stroke-width="2.85142" stroke-miterlimit="10" stroke-linecap="round"/>
<path d="M131.118 110.448C131.118 120.347 123.106 128.359 113.207 128.359" stroke="#88C057" stroke-width="2.85142" stroke-miterlimit="10" stroke-linecap="round"/>
<path d="M131.118 122.389C131.118 135.589 120.437 146.269 107.237 146.269" stroke="#88C057" stroke-width="2.85142" stroke-miterlimit="10" stroke-linecap="round"/>
<path d="M131.118 98.5079C131.118 105.108 136.458 110.448 143.058 110.448" stroke="#88C057" stroke-width="2.85142" stroke-miterlimit="10" stroke-linecap="round"/>
<path d="M131.118 110.448C131.118 120.347 139.13 128.359 149.028 128.359" stroke="#88C057" stroke-width="2.85142" stroke-miterlimit="10" stroke-linecap="round"/>
<path d="M131.118 122.389C131.118 135.589 141.798 146.269 154.999 146.269" stroke="#88C057" stroke-width="2.85142" stroke-miterlimit="10" stroke-linecap="round"/>
<path d="M150.222 42.9851C150.222 34.0746 143.013 26.8656 134.103 26.8656" stroke="#556080" stroke-width="2.85142" stroke-miterlimit="10" stroke-linecap="round"/>
<path d="M150.222 42.9853C150.222 37.045 155.028 32.239 160.969 32.239" stroke="#556080" stroke-width="2.85142" stroke-miterlimit="10" stroke-linecap="round"/>
<path d="M135.411 134.273C139.053 130.631 143.448 128.221 148.091 126.989L131.228 110.126C130.46 109.357 129.213 109.357 128.444 110.126L111.265 127.304C110.496 128.072 110.496 129.319 111.265 130.088L128.127 146.951C129.359 142.308 131.769 137.913 135.411 134.273Z" fill="#57823B"/>
<path d="M175.277 174.138C171.635 177.78 167.24 180.189 162.597 181.422L179.46 198.285C180.229 199.053 181.476 199.053 182.244 198.285L199.424 181.105C200.192 180.337 200.192 179.09 199.424 178.321L182.561 161.458C181.328 166.101 178.919 170.498 175.277 174.138Z" fill="#57823B"/>
<path d="M127.111 133.802C126.245 133.802 125.542 133.099 125.542 132.233V119.686C125.542 118.82 126.245 118.117 127.111 118.117C127.977 118.117 128.679 118.82 128.679 119.686V132.233C128.679 133.099 127.978 133.802 127.111 133.802Z" fill="#2A4F24"/>
<path d="M133.385 127.528H120.837C119.971 127.528 119.268 126.825 119.268 125.959C119.268 125.094 119.971 124.391 120.837 124.391H133.385C134.25 124.391 134.953 125.094 134.953 125.959C134.953 126.825 134.252 127.528 133.385 127.528Z" fill="#2A4F24"/>
<path d="M183.576 190.267C182.71 190.267 182.007 189.564 182.007 188.698V176.151C182.007 175.285 182.71 174.582 183.576 174.582C184.442 174.582 185.144 175.285 185.144 176.151V188.698C185.144 189.564 184.443 190.267 183.576 190.267Z" fill="#2A4F24"/>
<path d="M189.85 183.993H177.302C176.436 183.993 175.733 183.29 175.733 182.424C175.733 181.559 176.436 180.856 177.302 180.856H189.85C190.715 180.856 191.418 181.559 191.418 182.424C191.418 183.29 190.717 183.993 189.85 183.993Z" fill="#2A4F24"/>
<path d="M155.343 182.395C170.912 182.395 183.534 169.774 183.534 154.205C183.534 138.636 170.912 126.014 155.343 126.014C139.774 126.014 127.153 138.636 127.153 154.205C127.153 169.774 139.774 182.395 155.343 182.395Z" fill="white" stroke="#556080" stroke-width="1.49824" stroke-miterlimit="10" stroke-linecap="round" stroke-linejoin="round"/>
<path d="M127.111 154.204H133.385" stroke="#EBBA16" stroke-width="1.49824" stroke-miterlimit="10" stroke-linecap="round" stroke-linejoin="round"/>
<path d="M177.302 154.204H183.576" stroke="#EBBA16" stroke-width="1.49824" stroke-miterlimit="10" stroke-linecap="round" stroke-linejoin="round"/>
<path d="M155.343 125.959V132.233" stroke="#EBBA16" stroke-width="1.49824" stroke-miterlimit="10" stroke-linecap="round" stroke-linejoin="round"/>
<path d="M155.343 176.151V182.424" stroke="#EBBA16" stroke-width="1.49824" stroke-miterlimit="10" stroke-linecap="round" stroke-linejoin="round"/>
<path d="M179.062 130.473L175.733 133.802" stroke="#556080" stroke-width="1.49824" stroke-miterlimit="10"/>
<path d="M181.883 133.295L176.24 127.652C175.961 127.372 175.961 126.919 176.24 126.64L179.664 123.216C179.943 122.937 180.396 122.937 180.676 123.216L186.319 128.859C186.598 129.139 186.598 129.592 186.319 129.871L182.895 133.295C182.614 133.574 182.163 133.574 181.883 133.295Z" fill="#7383BF"/>
<path d="M159.821 152.957C159.972 153.773 159.969 154.611 159.813 155.425C159.813 155.425 156.247 169.877 155.343 169.877C154.441 169.877 150.873 155.425 150.873 155.425C150.718 154.611 150.715 153.773 150.865 152.957C150.865 152.957 154.44 138.507 155.343 138.507C156.247 138.507 159.821 152.957 159.821 152.957Z" fill="#1081E0"/>
</svg>
