<svg width="324" height="259" viewBox="0 0 324 259" fill="none" xmlns="http://www.w3.org/2000/svg">
<path d="M162.297 74.627L168.267 68.6568L174.237 74.627L180.207 68.6568L186.178 74.627L194.76 66.0448L174.237 26.8656L153.715 66.0448L162.297 74.627Z" fill="#E7ECED"/>
<path d="M239.42 151.302L194.76 66.0449L186.178 74.627L180.207 68.6569L174.237 74.627L168.267 68.6569L162.297 74.627L153.715 66.0449L108.565 152.239H238.852C239.333 152.239 239.644 151.729 239.42 151.302Z" fill="#6B5B4B"/>
<path d="M101.503 98.9885L67.0428 151.83C66.9293 152.007 67.0547 152.239 67.2637 152.239H108.565L131.733 108.012L123.267 97.7616C117.455 90.7288 106.488 91.3467 101.503 98.9885Z" fill="#659C35"/>
<path d="M102.595 41.7912C114.135 41.7912 123.491 32.4359 123.491 20.8956C123.491 9.35528 114.135 0 102.595 0C91.0549 0 81.6996 9.35528 81.6996 20.8956C81.6996 32.4359 91.0549 41.7912 102.595 41.7912Z" fill="#EFCE4A"/>
<path d="M150.357 99.2452V152.239" stroke="#6C4127" stroke-width="2.85142" stroke-miterlimit="10" stroke-linecap="round"/>
<path d="M150.356 98.5079C150.356 105.108 145.016 110.448 138.416 110.448" stroke="#88C057" stroke-width="2.85142" stroke-miterlimit="10" stroke-linecap="round"/>
<path d="M150.356 110.448C150.356 120.347 142.344 128.359 132.446 128.359" stroke="#88C057" stroke-width="2.85142" stroke-miterlimit="10" stroke-linecap="round"/>
<path d="M150.356 122.389C150.356 135.589 139.676 146.269 126.476 146.269" stroke="#88C057" stroke-width="2.85142" stroke-miterlimit="10" stroke-linecap="round"/>
<path d="M150.357 98.5079C150.357 105.108 155.697 110.448 162.297 110.448" stroke="#88C057" stroke-width="2.85142" stroke-miterlimit="10" stroke-linecap="round"/>
<path d="M150.357 110.448C150.357 120.347 158.369 128.359 168.267 128.359" stroke="#88C057" stroke-width="2.85142" stroke-miterlimit="10" stroke-linecap="round"/>
<path d="M150.357 122.389C150.357 135.589 161.037 146.269 174.237 146.269" stroke="#88C057" stroke-width="2.85142" stroke-miterlimit="10" stroke-linecap="round"/>
<path d="M198.118 99.2452V152.239" stroke="#6C4127" stroke-width="2.85142" stroke-miterlimit="10" stroke-linecap="round"/>
<path d="M198.118 98.5079C198.118 105.108 192.777 110.448 186.177 110.448" stroke="#88C057" stroke-width="2.85142" stroke-miterlimit="10" stroke-linecap="round"/>
<path d="M198.118 110.448C198.118 120.347 190.106 128.359 180.207 128.359" stroke="#88C057" stroke-width="2.85142" stroke-miterlimit="10" stroke-linecap="round"/>
<path d="M198.118 122.389C198.118 135.589 187.437 146.269 174.237 146.269" stroke="#88C057" stroke-width="2.85142" stroke-miterlimit="10" stroke-linecap="round"/>
<path d="M198.118 98.5079C198.118 105.108 203.458 110.448 210.058 110.448" stroke="#88C057" stroke-width="2.85142" stroke-miterlimit="10" stroke-linecap="round"/>
<path d="M198.118 110.448C198.118 120.347 206.13 128.359 216.028 128.359" stroke="#88C057" stroke-width="2.85142" stroke-miterlimit="10" stroke-linecap="round"/>
<path d="M198.118 122.389C198.118 135.589 208.798 146.269 221.999 146.269" stroke="#88C057" stroke-width="2.85142" stroke-miterlimit="10" stroke-linecap="round"/>
<path d="M217.222 42.9851C217.222 34.0746 210.013 26.8656 201.103 26.8656" stroke="#556080" stroke-width="2.85142" stroke-miterlimit="10" stroke-linecap="round"/>
<path d="M217.222 42.9853C217.222 37.045 222.028 32.239 227.969 32.239" stroke="#556080" stroke-width="2.85142" stroke-miterlimit="10" stroke-linecap="round"/>
<path d="M202.411 134.273C206.053 130.631 210.448 128.221 215.091 126.989L198.228 110.126C197.46 109.357 196.213 109.357 195.444 110.126L178.265 127.304C177.496 128.072 177.496 129.319 178.265 130.088L195.127 146.951C196.359 142.308 198.769 137.913 202.411 134.273Z" fill="#57823B"/>
<path d="M242.277 174.138C238.635 177.78 234.24 180.189 229.597 181.422L246.46 198.285C247.229 199.053 248.476 199.053 249.244 198.285L266.424 181.105C267.192 180.337 267.192 179.09 266.424 178.321L249.561 161.458C248.328 166.101 245.919 170.498 242.277 174.138Z" fill="#57823B"/>
<path d="M194.111 133.802C193.245 133.802 192.542 133.099 192.542 132.233V119.686C192.542 118.82 193.245 118.117 194.111 118.117C194.977 118.117 195.679 118.82 195.679 119.686V132.233C195.679 133.099 194.978 133.802 194.111 133.802Z" fill="#2A4F24"/>
<path d="M200.385 127.528H187.837C186.971 127.528 186.268 126.825 186.268 125.959C186.268 125.094 186.971 124.391 187.837 124.391H200.385C201.25 124.391 201.953 125.094 201.953 125.959C201.953 126.825 201.252 127.528 200.385 127.528Z" fill="#2A4F24"/>
<path d="M250.576 190.267C249.71 190.267 249.007 189.564 249.007 188.698V176.151C249.007 175.285 249.71 174.582 250.576 174.582C251.442 174.582 252.144 175.285 252.144 176.151V188.698C252.144 189.564 251.443 190.267 250.576 190.267Z" fill="#2A4F24"/>
<path d="M256.85 183.993H244.302C243.436 183.993 242.733 183.29 242.733 182.424C242.733 181.559 243.436 180.856 244.302 180.856H256.85C257.715 180.856 258.418 181.559 258.418 182.424C258.418 183.29 257.717 183.993 256.85 183.993Z" fill="#2A4F24"/>
<path d="M222.343 182.395C237.912 182.395 250.534 169.774 250.534 154.205C250.534 138.636 237.912 126.014 222.343 126.014C206.774 126.014 194.153 138.636 194.153 154.205C194.153 169.774 206.774 182.395 222.343 182.395Z" fill="white" stroke="#556080" stroke-width="1.49824" stroke-miterlimit="10" stroke-linecap="round" stroke-linejoin="round"/>
<path d="M194.111 154.204H200.385" stroke="#EBBA16" stroke-width="1.49824" stroke-miterlimit="10" stroke-linecap="round" stroke-linejoin="round"/>
<path d="M244.302 154.204H250.576" stroke="#EBBA16" stroke-width="1.49824" stroke-miterlimit="10" stroke-linecap="round" stroke-linejoin="round"/>
<path d="M222.343 125.959V132.233" stroke="#EBBA16" stroke-width="1.49824" stroke-miterlimit="10" stroke-linecap="round" stroke-linejoin="round"/>
<path d="M222.343 176.151V182.424" stroke="#EBBA16" stroke-width="1.49824" stroke-miterlimit="10" stroke-linecap="round" stroke-linejoin="round"/>
<path d="M246.062 130.473L242.733 133.802" stroke="#556080" stroke-width="1.49824" stroke-miterlimit="10"/>
<path d="M248.883 133.295L243.24 127.652C242.961 127.372 242.961 126.919 243.24 126.64L246.664 123.216C246.943 122.937 247.396 122.937 247.676 123.216L253.319 128.859C253.598 129.139 253.598 129.592 253.319 129.871L249.895 133.295C249.614 133.574 249.163 133.574 248.883 133.295Z" fill="#7383BF"/>
<path d="M226.821 152.957C226.972 153.773 226.969 154.611 226.813 155.425C226.813 155.425 223.247 169.877 222.343 169.877C221.441 169.877 217.873 155.425 217.873 155.425C217.718 154.611 217.715 153.773 217.865 152.957C217.865 152.957 221.44 138.507 222.343 138.507C223.247 138.507 226.821 152.957 226.821 152.957Z" fill="#1081E0"/>
<path d="M21.375 236.148C21.375 245.195 25.4609 249.719 33.6328 249.719C41.6328 249.719 45.6328 245.195 45.6328 236.148C45.6328 227.227 41.6328 222.766 33.6328 222.766C25.4609 222.766 21.375 227.227 21.375 236.148ZM16.8047 236.289C16.8047 224.93 22.4141 219.25 33.6328 219.25C44.6797 219.25 50.2031 224.93 50.2031 236.289C50.2031 247.586 44.6797 253.234 33.6328 253.234C22.4141 253.234 16.8047 247.586 16.8047 236.289ZM77.7656 228.391V253H74.7891L74.0391 249.859C71.0547 251.953 68.0547 253 65.0391 253C59.3828 253 56.5547 249.945 56.5547 243.836V228.391H60.8906V243.906C60.8906 247.562 62.7031 249.391 66.3281 249.391C68.8125 249.391 71.1797 248.352 73.4297 246.273V228.391H77.7656ZM84.8203 224.406H87.5391L88.4766 228.391H95.1328V231.906H89.1562V246.039C89.1562 248.336 90.1484 249.484 92.1328 249.484H95.1328V253H91.0078C86.8828 253 84.8203 250.789 84.8203 246.367V224.406ZM117.188 233.406C115.438 232.562 113.438 232.141 111.188 232.141C106.234 232.141 103.758 234.773 103.758 240.039C103.758 246.273 106.234 249.391 111.188 249.391C113.438 249.391 115.438 249.086 117.188 248.477V233.406ZM121.523 251.523C118.539 252.508 114.859 253 110.484 253C103.156 253 99.4922 248.734 99.4922 240.203C99.4922 232.328 103.383 228.391 111.164 228.391C113.289 228.391 115.297 228.781 117.188 229.562V219.484H121.523V251.523ZM131.719 240.602C131.719 246.523 134.18 249.484 139.102 249.484C144.023 249.484 146.484 246.523 146.484 240.602C146.484 234.805 144.023 231.906 139.102 231.906C134.18 231.906 131.719 234.805 131.719 240.602ZM127.383 240.695C127.383 232.492 131.289 228.391 139.102 228.391C146.914 228.391 150.82 232.492 150.82 240.695C150.82 248.883 146.914 252.977 139.102 252.977C131.32 252.977 127.414 248.883 127.383 240.695ZM159.844 240.602C159.844 246.523 162.305 249.484 167.227 249.484C172.148 249.484 174.609 246.523 174.609 240.602C174.609 234.805 172.148 231.906 167.227 231.906C162.305 231.906 159.844 234.805 159.844 240.602ZM155.508 240.695C155.508 232.492 159.414 228.391 167.227 228.391C175.039 228.391 178.945 232.492 178.945 240.695C178.945 248.883 175.039 252.977 167.227 252.977C159.445 252.977 155.539 248.883 155.508 240.695ZM184.805 253V228.391H187.734L188.508 231.531C190.664 229.438 193.258 228.391 196.289 228.391V232C193.352 232 190.969 233.039 189.141 235.117V253H184.805ZM212.836 253V219.484H217.172L237.68 246.484V219.484H241.781V253H237.445L216.938 225.766V253H212.836ZM252.469 240.602C252.469 246.523 254.93 249.484 259.852 249.484C264.773 249.484 267.234 246.523 267.234 240.602C267.234 234.805 264.773 231.906 259.852 231.906C254.93 231.906 252.469 234.805 252.469 240.602ZM248.133 240.695C248.133 232.492 252.039 228.391 259.852 228.391C267.664 228.391 271.57 232.492 271.57 240.695C271.57 248.883 267.664 252.977 259.852 252.977C252.07 252.977 248.164 248.883 248.133 240.695ZM274.734 228.391H279.117L283.477 247.68L289.875 228.391H293.789L300.633 247.68L304.57 228.391H309.164L302.742 253H298.781L291.727 234.602L285.023 253H280.969L274.734 228.391Z" fill="black"/>
</svg>
