<?xml version="1.0" encoding="UTF-8" standalone="no"?>
<!-- Created with Inkscape (http://www.inkscape.org/) -->

<svg
   xmlns:dc="http://purl.org/dc/elements/1.1/"
   xmlns:cc="http://creativecommons.org/ns#"
   xmlns:rdf="http://www.w3.org/1999/02/22-rdf-syntax-ns#"
   xmlns:svg="http://www.w3.org/2000/svg"
   xmlns="http://www.w3.org/2000/svg"
   xmlns:sodipodi="http://sodipodi.sourceforge.net/DTD/sodipodi-0.dtd"
   xmlns:inkscape="http://www.inkscape.org/namespaces/inkscape"
   width="96"
   height="96"
   viewBox="0 0 96 96"
   id="svg2"
   version="1.1"
   inkscape:version="0.91 r13725"
   sodipodi:docname="outdoor-now.svg">
  <defs
     id="defs4" />
  <sodipodi:namedview
     id="base"
     pagecolor="#ffffff"
     bordercolor="#666666"
     borderopacity="1.0"
     inkscape:pageopacity="0.0"
     inkscape:pageshadow="2"
     inkscape:zoom="2.8"
     inkscape:cx="34.647882"
     inkscape:cy="64.285714"
     inkscape:document-units="px"
     inkscape:current-layer="layer1"
     showgrid="false"
     units="px"
     width="49px"
     inkscape:window-width="1366"
     inkscape:window-height="719"
     inkscape:window-x="0"
     inkscape:window-y="25"
     inkscape:window-maximized="1" />
  <metadata
     id="metadata7">
    <rdf:RDF>
      <cc:Work
         rdf:about="">
        <dc:format>image/svg+xml</dc:format>
        <dc:type
           rdf:resource="http://purl.org/dc/dcmitype/StillImage" />
        <dc:title></dc:title>
      </cc:Work>
    </rdf:RDF>
  </metadata>
  <g
     inkscape:label="Capa 1"
     inkscape:groupmode="layer"
     id="layer1"
     transform="translate(0,-956.3622)">
    <g
       id="g5245"
       transform="matrix(1.4257076,0,0,1.4257076,0.22914562,952.90526)">
      <polygon
         id="polygon5169"
         points="31.925,27.893 33.925,25.893 35.925,27.893 37.925,25.893 39.925,27.893 42.8,25.018 35.925,11.893 29.05,25.018 "
         style="fill:#e7eced" />
      <path
         id="path5171"
         d="M 57.761,53.579 42.8,25.018 l -2.875,2.875 -2,-2 -2,2 -2,-2 -2,2 -2.875,-2.875 -15.125,28.875 43.646,0 c 0.161,0 0.265,-0.171 0.19,-0.314 z"
         style="fill:#6b5b4b"
         inkscape:connector-curvature="0" />
      <path
         id="path5173"
         d="M 11.559,36.054 0.015,53.756 c -0.038,0.059 0.004,0.137 0.074,0.137 l 13.836,0 7.761,-14.816 -2.836,-3.434 c -1.947,-2.356 -5.621,-2.149 -7.291,0.411 z"
         style="fill:#659c35"
         inkscape:connector-curvature="0" />
      <circle
         id="circle5175"
         r="7"
         cy="9.8929996"
         cx="11.925"
         style="fill:#efce4a" />
      <line
         id="line5177"
         y2="53.893002"
         x2="27.924999"
         y1="36.139999"
         x1="27.924999"
         style="fill:none;stroke:#6c4127;stroke-width:2;stroke-linecap:round;stroke-miterlimit:10" />
      <path
         id="path5179"
         d="m 27.925,35.893 c 0,2.211 -1.789,4 -4,4"
         style="fill:none;stroke:#88c057;stroke-width:2;stroke-linecap:round;stroke-miterlimit:10"
         inkscape:connector-curvature="0" />
      <path
         id="path5181"
         d="m 27.925,39.893 c 0,3.316 -2.684,6 -6,6"
         style="fill:none;stroke:#88c057;stroke-width:2;stroke-linecap:round;stroke-miterlimit:10"
         inkscape:connector-curvature="0" />
      <path
         id="path5183"
         d="m 27.925,43.893 c 0,4.422 -3.578,8 -8,8"
         style="fill:none;stroke:#88c057;stroke-width:2;stroke-linecap:round;stroke-miterlimit:10"
         inkscape:connector-curvature="0" />
      <path
         id="path5185"
         d="m 27.925,35.893 c 0,2.211 1.789,4 4,4"
         style="fill:none;stroke:#88c057;stroke-width:2;stroke-linecap:round;stroke-miterlimit:10"
         inkscape:connector-curvature="0" />
      <path
         id="path5187"
         d="m 27.925,39.893 c 0,3.316 2.684,6 6,6"
         style="fill:none;stroke:#88c057;stroke-width:2;stroke-linecap:round;stroke-miterlimit:10"
         inkscape:connector-curvature="0" />
      <path
         id="path5189"
         d="m 27.925,43.893 c 0,4.422 3.578,8 8,8"
         style="fill:none;stroke:#88c057;stroke-width:2;stroke-linecap:round;stroke-miterlimit:10"
         inkscape:connector-curvature="0" />
      <line
         id="line5191"
         y2="53.893002"
         x2="43.924999"
         y1="36.139999"
         x1="43.924999"
         style="fill:none;stroke:#6c4127;stroke-width:2;stroke-linecap:round;stroke-miterlimit:10" />
      <path
         id="path5193"
         d="m 43.925,35.893 c 0,2.211 -1.789,4 -4,4"
         style="fill:none;stroke:#88c057;stroke-width:2;stroke-linecap:round;stroke-miterlimit:10"
         inkscape:connector-curvature="0" />
      <path
         id="path5195"
         d="m 43.925,39.893 c 0,3.316 -2.684,6 -6,6"
         style="fill:none;stroke:#88c057;stroke-width:2;stroke-linecap:round;stroke-miterlimit:10"
         inkscape:connector-curvature="0" />
      <path
         id="path5197"
         d="m 43.925,43.893 c 0,4.422 -3.578,8 -8,8"
         style="fill:none;stroke:#88c057;stroke-width:2;stroke-linecap:round;stroke-miterlimit:10"
         inkscape:connector-curvature="0" />
      <path
         id="path5199"
         d="m 43.925,35.893 c 0,2.211 1.789,4 4,4"
         style="fill:none;stroke:#88c057;stroke-width:2;stroke-linecap:round;stroke-miterlimit:10"
         inkscape:connector-curvature="0" />
      <path
         id="path5201"
         d="m 43.925,39.893 c 0,3.316 2.684,6 6,6"
         style="fill:none;stroke:#88c057;stroke-width:2;stroke-linecap:round;stroke-miterlimit:10"
         inkscape:connector-curvature="0" />
      <path
         id="path5203"
         d="m 43.925,43.893 c 0,4.422 3.578,8 8,8"
         style="fill:none;stroke:#88c057;stroke-width:2;stroke-linecap:round;stroke-miterlimit:10"
         inkscape:connector-curvature="0" />
      <path
         id="path5205"
         d="m 50.325,17.293 c 0,-2.985 -2.415,-5.4 -5.4,-5.4"
         style="fill:none;stroke:#556080;stroke-width:2;stroke-linecap:round;stroke-miterlimit:10"
         inkscape:connector-curvature="0" />
      <path
         id="path5207"
         d="m 50.325,17.293 c 0,-1.99 1.61,-3.6 3.6,-3.6"
         style="fill:none;stroke:#556080;stroke-width:2;stroke-linecap:round;stroke-miterlimit:10"
         inkscape:connector-curvature="0" />
      <g
         id="g5209" />
      <g
         id="g5211" />
      <g
         id="g5213" />
      <g
         id="g5215" />
      <g
         id="g5217" />
      <g
         id="g5219" />
      <g
         id="g5221" />
      <g
         id="g5223" />
      <g
         id="g5225" />
      <g
         id="g5227" />
      <g
         id="g5229" />
      <g
         id="g5231" />
      <g
         id="g5233" />
      <g
         id="g5235" />
      <g
         id="g5237" />
    </g>
    <g
       id="g5347"
       transform="matrix(0.74911815,0,0,0.74911815,53.095517,1009.3513)">
      <path
         id="path5283"
         d="m 15.763,15.763 c 2.322,-2.322 5.124,-3.858 8.084,-4.644 L 13.096,0.368 c -0.49,-0.49 -1.285,-0.49 -1.775,0 L 0.368,11.32 c -0.49,0.49 -0.49,1.285 0,1.775 l 10.751,10.751 c 0.785,-2.96 2.322,-5.762 4.644,-8.083 z"
         style="fill:#57823b"
         inkscape:connector-curvature="0" />
      <path
         id="path5285"
         d="m 41.18,41.18 c -2.322,2.322 -5.124,3.858 -8.084,4.644 l 10.751,10.751 c 0.49,0.49 1.285,0.49 1.775,0 L 56.575,45.622 c 0.49,-0.49 0.49,-1.285 0,-1.775 L 45.824,33.096 c -0.786,2.96 -2.322,5.763 -4.644,8.084 z"
         style="fill:#57823b"
         inkscape:connector-curvature="0" />
      <path
         id="path5287"
         d="m 10.471,15.463 c -0.552,0 -1,-0.448 -1,-1 l 0,-8 c 0,-0.552 0.448,-1 1,-1 0.552,0 1,0.448 1,1 l 0,8 c 0,0.552 -0.447,1 -1,1 z"
         style="fill:#2a4f24"
         inkscape:connector-curvature="0" />
      <path
         id="path5289"
         d="m 14.471,11.463 -8,0 c -0.552,0 -1,-0.448 -1,-1 0,-0.552 0.448,-1 1,-1 l 8,0 c 0.552,0 1,0.448 1,1 0,0.552 -0.447,1 -1,1 z"
         style="fill:#2a4f24"
         inkscape:connector-curvature="0" />
      <path
         id="path5291"
         d="m 46.471,51.463 c -0.552,0 -1,-0.448 -1,-1 l 0,-8 c 0,-0.552 0.448,-1 1,-1 0.552,0 1,0.448 1,1 l 0,8 c 0,0.552 -0.447,1 -1,1 z"
         style="fill:#2a4f24"
         inkscape:connector-curvature="0" />
      <path
         id="path5293"
         d="m 50.471,47.463 -8,0 c -0.552,0 -1,-0.448 -1,-1 0,-0.552 0.448,-1 1,-1 l 8,0 c 0.552,0 1,0.448 1,1 0,0.552 -0.447,1 -1,1 z"
         style="fill:#2a4f24"
         inkscape:connector-curvature="0" />
      <circle
         id="circle5295"
         r="17.973"
         cy="28.471001"
         cx="28.471001"
         style="fill:#ffffff;stroke:#556080;stroke-width:2;stroke-linecap:round;stroke-linejoin:round;stroke-miterlimit:10" />
      <line
         id="line5297"
         y2="28.471001"
         x2="14.471"
         y1="28.471001"
         x1="10.471"
         style="fill:none;stroke:#ebba16;stroke-width:2;stroke-linecap:round;stroke-linejoin:round;stroke-miterlimit:10" />
      <line
         id="line5299"
         y2="28.471001"
         x2="46.471001"
         y1="28.471001"
         x1="42.471001"
         style="fill:none;stroke:#ebba16;stroke-width:2;stroke-linecap:round;stroke-linejoin:round;stroke-miterlimit:10" />
      <line
         id="line5301"
         y2="14.463"
         x2="28.471001"
         y1="10.463"
         x1="28.471001"
         style="fill:none;stroke:#ebba16;stroke-width:2;stroke-linecap:round;stroke-linejoin:round;stroke-miterlimit:10" />
      <line
         id="line5303"
         y2="46.463001"
         x2="28.471001"
         y1="42.463001"
         x1="28.471001"
         style="fill:none;stroke:#ebba16;stroke-width:2;stroke-linecap:round;stroke-linejoin:round;stroke-miterlimit:10" />
      <line
         id="line5305"
         y2="15.463"
         x2="41.471001"
         y1="13.341"
         x1="43.592999"
         style="fill:none;stroke:#556080;stroke-width:2;stroke-miterlimit:10" />
      <path
         id="path5307"
         d="m 45.392,15.14 -3.598,-3.598 c -0.178,-0.178 -0.178,-0.467 0,-0.645 l 2.183,-2.183 c 0.178,-0.178 0.467,-0.178 0.645,0 l 3.598,3.598 c 0.178,0.178 0.178,0.467 0,0.645 l -2.183,2.183 c -0.179,0.178 -0.467,0.178 -0.645,0 z"
         style="fill:#7383bf"
         inkscape:connector-curvature="0" />
      <path
         id="path5309"
         d="m 31.326,27.676 c 0.096,0.52 0.094,1.054 -0.005,1.573 0,0 -2.274,9.214 -2.85,9.214 l 0,0 c -0.575,0 -2.85,-9.214 -2.85,-9.214 -0.099,-0.519 -0.101,-1.053 -0.005,-1.573 0,0 2.279,-9.213 2.855,-9.213 l 0,0 c 0.576,0 2.855,9.213 2.855,9.213 z"
         style="fill:#1081e0"
         inkscape:connector-curvature="0" />
      <g
         id="g5311" />
      <g
         id="g5313" />
      <g
         id="g5315" />
      <g
         id="g5317" />
      <g
         id="g5319" />
      <g
         id="g5321" />
      <g
         id="g5323" />
      <g
         id="g5325" />
      <g
         id="g5327" />
      <g
         id="g5329" />
      <g
         id="g5331" />
      <g
         id="g5333" />
      <g
         id="g5335" />
      <g
         id="g5337" />
      <g
         id="g5339" />
    </g>
  </g>
</svg>
